# xmcd CD database file
#
# Track frame offsets:
#	150
#	10445
#	26575
#	35538
#	41745
#	57335
#	71705
#	83455
#	95128
#	107277
#	118339
#	129695
#	140984
#	155476
#	167728
#	178658
#	192997
#	199516
#	212439
#	223460
#	234122
#	247417
#	257883
#	267829
#	276252
#	287599
#	297558
#	308487
#	319100
#	330649
#
# Disc length: 4582 seconds
#
# Revision: 0
# Processed by: cddbd v1.5.2PL0 Copyright (c) Steve Scherf et al.
# Submitted via: CDex 1.51
#
DISCID=d411e41e
DTITLE=Texas Bill Strength - Please Don't Ever Forget Me Vol.2
DYEAR=1900
DGENRE=Country
TTITLE0=Texas Bill Strength/Prisoner's Song
TTITLE1=Texas Bill Strength/Turn Around
TTITLE2=Texas Bill Strength/Never
TTITLE3=Texas Bill Strength/What More Can I Do
TTITLE4=Texas Bill Strength/Someday You'll Call My Name
TTITLE5=Texas Bill Strength/Y'All Come
TTITLE6=Texas Bill Strength/When I Lost My Baby
TTITLE7=Texas Bill Strength/Try To Think How Lonesome I Would Be
TTITLE8=Texas Bill Strength/There's No Way Out
TTITLE9=Texas Bill Strength/That Lucky Old Sun
TTITLE10=Texas Bill Strength/Substitute Love
TTITLE11=Texas Bill Strength/Post No Bills
TTITLE12=Texas Bill Strength/Please Don't Ever Forget Me
TTITLE13=Texas Bill Strength/King Size Broken Heart
TTITLE14=Texas Bill Strength/Mr. Moon Sailing High
TTITLE15=Texas Bill Strength/Molly Darlin'
TTITLE16=Texas Bill Strength/Little Red Wagon
TTITLE17=Texas Bill Strength/I'm Walking In Heaven
TTITLE18=Texas Bill Strength/If I Could Buy Your Love
TTITLE19=Texas Bill Strength/Actions Speak Louder Than Words
TTITLE20=Texas Bill Strength/I Was Only Teasin' You
TTITLE21=Texas Bill Strength/It's Nice To Be Living
TTITLE22=Texas Bill Strength/Million Memories
TTITLE23=Texas Bill Strength/Tears In My Beer
TTITLE24=Texas Bill Strength/Nobody Knows This More Than Me
TTITLE25=Texas Bill Strength/Guess I'd Better Go
TTITLE26=Texas Bill Strength/Heart Don't Complain
TTITLE27=Texas Bill Strength/Picture Of My Heart
TTITLE28=Texas Bill Strength/Rain Or Shine
TTITLE29=Texas Bill Strength/Senorita
EXTD=
EXTT0=
EXTT1=
EXTT2=
EXTT3=
EXTT4=
EXTT5=
EXTT6=
EXTT7=
EXTT8=
EXTT9=
EXTT10=
EXTT11=
EXTT12=
EXTT13=
EXTT14=
EXTT15=
EXTT16=
EXTT17=
EXTT18=
EXTT19=
EXTT20=
EXTT21=
EXTT22=
EXTT23=
EXTT24=
EXTT25=
EXTT26=
EXTT27=
EXTT28=
EXTT29=
PLAYORDER=
